<?xml version="1.0" standalone="no"?>
<!DOCTYPE svg PUBLIC "-//W3C//DTD SVG 20010904//EN"
 "http://www.w3.org/TR/2001/REC-SVG-20010904/DTD/svg10.dtd">
<svg version="1.0" xmlns="http://www.w3.org/2000/svg"
 width="744.000000pt" height="744.000000pt" viewBox="0 0 744.000000 744.000000"
 preserveAspectRatio="xMidYMid meet">
<metadata>
Created by potrace 1.14, written by Peter Selinger 2001-2017
</metadata>
<g transform="translate(0.000000,744.000000) scale(0.100000,-0.100000)"
fill="#000000" stroke="none">
<path d="M5560 7431 c0 -15 -181 -98 -287 -131 -59 -18 -103 -37 -103 -44 0
-28 45 -147 90 -241 73 -149 101 -231 115 -335 2 -8 6 -37 9 -65 11 -78 17
-108 20 -114 2 -3 7 -22 10 -41 7 -43 23 -127 32 -160 10 -42 14 -402 4 -445
-5 -22 -11 -54 -14 -72 -4 -17 -13 -59 -22 -92 -8 -34 -17 -70 -19 -81 -2 -12
-14 -55 -25 -98 -12 -42 -23 -84 -25 -92 -10 -44 -105 -332 -123 -373 -12 -27
-37 -74 -56 -105 -18 -32 -46 -79 -61 -107 -63 -114 -79 -141 -113 -189 -20
-28 -46 -61 -57 -73 -18 -19 -30 -41 -76 -148 -21 -47 -57 -165 -51 -165 3 0
1 -5 -6 -12 -7 -7 -12 -20 -12 -30 0 -10 -4 -26 -9 -36 -5 -9 -28 -55 -51
-102 -23 -47 -53 -99 -66 -117 -13 -17 -24 -36 -24 -42 0 -6 -4 -11 -9 -11 -5
0 -12 -8 -15 -18 -3 -10 -30 -45 -59 -79 -248 -291 -259 -302 -337 -362 -36
-28 -72 -57 -80 -64 -8 -7 -35 -29 -60 -48 -48 -37 -127 -110 -304 -284 -102
-100 -178 -167 -267 -235 -18 -14 -49 -38 -69 -55 -21 -16 -54 -43 -76 -60
-21 -16 -46 -38 -56 -48 -10 -9 -22 -17 -27 -17 -5 0 -11 -4 -13 -8 -3 -9
-131 -114 -198 -163 -19 -14 -136 -76 -260 -139 -387 -194 -546 -280 -784
-424 -33 -20 -117 -54 -190 -76 -72 -22 -141 -45 -153 -50 -26 -11 -276 -199
-281 -212 -2 -4 -8 -8 -14 -8 -5 0 -17 -7 -26 -17 -18 -17 -21 -18 63 2 12 3
48 14 80 26 33 11 71 23 84 25 34 7 145 55 207 90 29 16 87 49 130 73 44 24
149 85 234 135 85 50 182 105 215 121 33 17 62 33 63 38 2 4 9 7 16 7 27 0
352 172 561 297 11 6 34 19 50 27 37 19 68 37 213 123 114 68 206 134 318 227
57 48 90 75 188 153 23 18 48 39 56 46 8 8 33 27 55 43 21 16 46 36 55 44 9 8
38 35 65 59 28 24 122 112 210 197 88 84 201 185 250 225 50 39 107 85 129
102 49 40 138 133 207 217 30 36 63 74 75 85 51 49 180 249 236 365 14 30 38
96 52 145 15 50 31 98 36 107 6 10 10 22 10 28 0 22 52 121 96 180 60 81 103
149 146 230 97 182 129 230 156 231 88 3 306 0 352 -5 175 -19 203 -26 281
-69 91 -51 152 -100 253 -206 196 -203 291 -346 334 -501 14 -51 18 -96 16
-211 -4 -284 -22 -416 -70 -509 -12 -25 -70 -117 -129 -205 -58 -88 -108 -167
-112 -175 -4 -8 -11 -19 -15 -25 -4 -5 -29 -39 -54 -75 -26 -35 -63 -82 -83
-103 -31 -35 -222 -191 -334 -274 -21 -15 -43 -33 -50 -38 -6 -6 -52 -40 -102
-75 -49 -36 -92 -67 -95 -70 -31 -32 -204 -123 -343 -181 -111 -47 -753 -267
-801 -276 -16 -2 -72 -18 -125 -34 -53 -16 -100 -31 -106 -32 -5 -2 -19 -8
-30 -14 -11 -6 -22 -11 -25 -10 -3 0 -27 -10 -55 -22 -87 -40 -226 -90 -335
-121 -458 -130 -698 -202 -758 -225 -42 -16 -140 -41 -192 -49 -19 -3 -98 -21
-175 -41 -77 -20 -147 -38 -155 -40 -203 -48 -316 -88 -516 -181 -28 -13 -56
-24 -62 -24 -7 0 -12 -4 -12 -10 0 -5 -7 -10 -15 -10 -9 0 -41 -13 -72 -30
-31 -16 -62 -30 -69 -30 -7 0 -14 -4 -16 -8 -2 -5 -55 -35 -118 -67 -135 -69
-199 -102 -220 -115 -50 -32 -193 -110 -201 -110 -5 0 -9 -4 -9 -10 0 -5 -5
-10 -10 -10 -14 0 -194 -108 -293 -176 -43 -30 -80 -54 -82 -54 -2 0 3 12 11
28 7 15 14 32 14 38 0 6 6 17 14 23 8 7 17 24 21 38 3 15 16 41 28 57 12 17
21 32 20 33 -2 2 11 31 27 65 28 58 65 205 76 303 3 22 17 92 31 155 29 131
29 134 37 290 15 295 20 362 30 430 2 14 7 43 10 65 3 22 8 51 11 65 3 14 7
36 10 50 3 14 7 36 10 50 3 14 8 41 12 60 9 46 10 50 13 53 8 10 39 192 47
272 15 163 6 896 -12 924 -1 3 -6 31 -10 61 -4 30 -9 58 -10 61 -25 40 -25
554 -1 654 17 69 84 372 92 415 2 14 7 36 10 50 3 14 8 39 11 55 10 67 46 211
55 223 6 6 8 12 4 12 -6 0 65 118 91 150 157 199 537 573 689 677 45 32 237
95 329 108 22 4 52 8 66 11 59 9 190 17 294 16 117 0 314 -10 324 -16 3 -2 23
-7 44 -10 22 -3 91 -19 155 -35 65 -16 131 -32 147 -34 17 -3 60 -12 96 -21
37 -8 78 -17 90 -20 13 -2 62 -12 109 -21 47 -9 92 -19 100 -22 19 -8 18 -7
60 -17 67 -16 193 -89 315 -183 6 -4 32 -19 58 -33 26 -13 47 -28 47 -32 0 -5
6 -8 13 -8 8 0 22 -9 32 -20 10 -11 22 -20 27 -20 5 0 25 -15 45 -32 100 -91
149 -153 189 -243 13 -32 30 -55 39 -55 8 0 15 5 15 10 0 6 4 10 9 10 15 0
331 182 331 190 0 5 -4 11 -9 14 -5 3 -12 18 -15 32 -11 42 -90 155 -153 217
-62 61 -68 66 -321 231 -201 130 -264 160 -392 182 -43 8 -430 94 -530 119
-52 12 -111 26 -130 29 -19 3 -46 8 -59 11 -137 26 -492 27 -652 0 -13 -2 -42
-6 -64 -10 -89 -13 -242 -63 -319 -105 -28 -15 -96 -51 -151 -80 -55 -29 -112
-61 -128 -72 -15 -11 -27 -16 -27 -11 0 4 -4 3 -8 -3 -4 -6 -74 -50 -157 -99
-224 -132 -403 -281 -619 -516 -32 -35 -88 -96 -125 -134 -36 -39 -78 -86 -93
-105 -15 -19 -40 -51 -56 -72 -35 -45 -101 -174 -107 -210 -10 -57 -15 -84
-19 -108 -3 -14 -8 -43 -11 -65 -3 -22 -7 -47 -10 -55 -2 -8 -6 -31 -9 -50
-10 -64 -17 -94 -57 -255 -53 -214 -50 -195 -55 -480 -3 -200 0 -264 12 -320
34 -152 43 -219 51 -355 9 -166 8 -639 -1 -718 -4 -35 -11 -74 -16 -87 -5 -12
-7 -25 -4 -27 2 -3 -2 -24 -10 -46 -9 -23 -13 -42 -11 -42 2 0 -1 -15 -6 -32
-5 -18 -12 -46 -14 -63 -3 -16 -8 -43 -12 -60 -4 -16 -7 -32 -8 -35 -1 -4 -9
-56 -20 -130 -2 -14 -6 -59 -10 -100 -3 -41 -7 -90 -10 -109 -2 -19 -7 -67
-10 -105 -3 -39 -8 -96 -11 -126 -2 -30 -7 -82 -9 -115 -6 -79 -12 -120 -40
-240 -13 -55 -26 -122 -31 -150 -4 -27 -9 -57 -10 -65 -2 -8 -5 -26 -8 -40 -4
-14 -9 -41 -12 -60 -6 -37 -88 -231 -130 -305 -13 -24 -24 -51 -24 -59 0 -8
-6 -21 -12 -28 -7 -7 -39 -66 -72 -130 -32 -64 -67 -126 -77 -137 -10 -11 -19
-23 -19 -27 0 -3 -10 -19 -23 -34 -12 -15 -33 -42 -47 -60 -14 -17 -35 -44
-48 -58 -12 -15 -25 -35 -28 -44 -3 -10 -9 -18 -14 -18 -5 0 -11 -9 -15 -20
-3 -11 -24 -38 -46 -60 -22 -22 -36 -40 -31 -40 5 0 76 32 158 70 144 68 171
81 204 94 37 15 72 46 131 116 109 131 469 482 574 560 55 41 102 78 105 82
14 18 407 215 565 283 17 7 56 25 87 38 78 35 409 131 558 162 8 2 49 11 90
21 41 10 79 17 84 16 4 -2 14 3 22 9 8 6 14 9 14 6 0 -4 18 0 40 8 22 8 41 14
43 13 1 0 43 12 92 27 50 15 95 28 100 29 6 1 15 4 20 8 8 5 74 25 110 34 6 1
46 14 90 28 44 14 170 50 280 80 219 60 344 104 530 186 19 8 89 31 110 36 53
13 275 80 370 114 66 22 210 72 320 110 245 83 239 81 460 192 196 98 212 106
461 251 131 76 415 268 509 344 6 4 37 28 70 53 72 54 69 52 175 137 104 83
171 149 207 205 15 24 30 45 33 48 3 3 44 64 91 135 47 72 94 143 105 159 10
16 24 36 29 45 6 9 13 18 16 21 13 10 78 136 94 179 8 24 18 69 21 100 3 30
10 78 14 106 5 27 8 145 7 260 l-3 210 -43 105 c-71 171 -130 249 -373 493
-65 64 -122 117 -127 117 -5 0 -16 7 -24 15 -28 28 -124 75 -183 90 -104 25
-210 34 -476 36 l-137 2 -108 -80 c-141 -105 -137 -103 -119 -59 8 20 12 36 9
36 -3 0 0 7 7 15 7 8 10 15 7 15 -3 0 5 32 18 70 13 39 22 70 19 70 -2 0 2 14
11 30 9 17 13 30 11 30 -3 0 -1 11 4 25 5 14 12 36 14 48 3 12 24 96 47 187
l42 165 1 215 c1 228 -3 277 -29 378 -9 35 -14 66 -11 69 3 3 29 1 58 -6 29
-6 69 -15 88 -18 70 -13 641 -8 700 6 54 14 106 42 145 77 11 11 63 53 115 94
52 41 106 85 120 97 l25 23 -55 -21 c-30 -12 -64 -23 -75 -26 -11 -3 -155 -7
-320 -9 -269 -3 -309 -1 -390 16 -174 39 -246 72 -323 148 -53 52 -138 163
-144 187 -3 12 -32 47 -103 123 -31 34 -49 62 -47 73 2 11 -2 19 -7 19 -6 0
-11 -4 -11 -9z"/>
<path d="M4465 2200 c-3 -5 -1 -10 4 -10 6 0 11 5 11 10 0 6 -2 10 -4 10 -3 0
-8 -4 -11 -10z"/>
</g>
</svg>
